<svg xmlns="http://www.w3.org/2000/svg" viewBox="0 0 64 64"><path data-name="layer2" fill="#001f20" d="M40 12h4v4h-4z"></path><path data-name="layer1" d="M52 2H12a2 2 0 0 0-2 2v56a2 2 0 0 0 2 2h40a2 2 0 0 0 2-2V4a2 2 0 0 0-2-2zM21.5 57a3.5 3.5 0 1 1 3.5-3.5 3.5 3.5 0 0 1-3.5 3.5zm0-11a3.5 3.5 0 1 1 3.5-3.5 3.5 3.5 0 0 1-3.5 3.5zm0-11a3.5 3.5 0 1 1 3.5-3.5 3.5 3.5 0 0 1-3.5 3.5zM32 57a3.5 3.5 0 1 1 3.5-3.5A3.5 3.5 0 0 1 32 57zm0-11a3.5 3.5 0 1 1 3.5-3.5A3.5 3.5 0 0 1 32 46zm0-11a3.5 3.5 0 1 1 3.5-3.5A3.5 3.5 0 0 1 32 35zm10.5 22a3.5 3.5 0 1 1 3.5-3.5 3.5 3.5 0 0 1-3.5 3.5zm0-11a3.5 3.5 0 1 1 3.5-3.5 3.5 3.5 0 0 1-3.5 3.5zm0-11a3.5 3.5 0 1 1 3.5-3.5 3.5 3.5 0 0 1-3.5 3.5zM48 22H16V8h32z" fill="#001f20"></path></svg>